<svg width="50" height="50" viewBox="0 0 50 50" fill="none" xmlns="http://www.w3.org/2000/svg">
<path d="M44.341 17.2412L31.9436 15.4395L26.4016 4.20412C26.2502 3.8965 26.0012 3.64748 25.6936 3.49611C24.9221 3.11525 23.9846 3.43264 23.5988 4.20412L18.0568 15.4395L5.65938 17.2412C5.31758 17.2901 5.00508 17.4512 4.76582 17.6953C4.47657 17.9926 4.31718 18.3926 4.32268 18.8074C4.32817 19.2221 4.4981 19.6177 4.79512 19.9072L13.7648 28.6524L11.6457 41.001C11.596 41.2883 11.6278 41.5837 11.7375 41.8538C11.8471 42.1239 12.0303 42.3579 12.2662 42.5292C12.502 42.7005 12.7812 42.8023 13.072 42.823C13.3628 42.8438 13.6535 42.7826 13.9113 42.6465L25.0002 36.8164L36.0891 42.6465C36.3918 42.8076 36.7434 42.8613 37.0803 42.8028C37.9299 42.6563 38.5012 41.8506 38.3547 41.001L36.2355 28.6524L45.2053 19.9072C45.4494 19.668 45.6105 19.3555 45.6594 19.0137C45.7912 18.1592 45.1955 17.3682 44.341 17.2412ZM32.4611 27.4219L34.2238 37.6905L25.0002 32.8467L15.7766 37.6953L17.5393 27.4268L10.0783 20.1514L20.3908 18.6524L25.0002 9.31154L29.6096 18.6524L39.9221 20.1514L32.4611 27.4219Z" fill="#377DFF"/>
</svg>
