<svg width="29" height="29" viewBox="0 0 29 29" fill="none" xmlns="http://www.w3.org/2000/svg">
<path fill-rule="evenodd" clip-rule="evenodd" d="M14.0625 0C14.4769 0 14.8743 0.16462 15.1674 0.457646C15.4604 0.750672 15.625 1.1481 15.625 1.5625V14.0625C15.625 14.4769 15.4604 14.8743 15.1674 15.1674C14.8743 15.4604 14.4769 15.625 14.0625 15.625H1.5625C1.1481 15.625 0.750672 15.4604 0.457646 15.1674C0.16462 14.8743 0 14.4769 0 14.0625C0 13.6481 0.16462 13.2507 0.457646 12.9576C0.750672 12.6646 1.1481 12.5 1.5625 12.5H12.5V1.5625C12.5 1.1481 12.6646 0.750672 12.9576 0.457646C13.2507 0.16462 13.6481 0 14.0625 0Z" fill="#377DFF"/>
<path fill-rule="evenodd" clip-rule="evenodd" d="M12.5 14.0625C12.5 13.6481 12.6646 13.2507 12.9576 12.9576C13.2507 12.6646 13.6481 12.5 14.0625 12.5H26.5625C26.9769 12.5 27.3743 12.6646 27.6674 12.9576C27.9604 13.2507 28.125 13.6481 28.125 14.0625C28.125 14.4769 27.9604 14.8743 27.6674 15.1674C27.3743 15.4604 26.9769 15.625 26.5625 15.625H15.625V26.5625C15.625 26.9769 15.4604 27.3743 15.1674 27.6674C14.8743 27.9604 14.4769 28.125 14.0625 28.125C13.6481 28.125 13.2507 27.9604 12.9576 27.6674C12.6646 27.3743 12.5 26.9769 12.5 26.5625V14.0625Z" fill="#377DFF"/>
</svg>
