<svg width="20" height="20" viewBox="0 0 20 20" fill="none" xmlns="http://www.w3.org/2000/svg">
<path d="M12.6999 10C12.6999 8.5 11.4999 7.3 9.99994 7.3C8.49994 7.3 7.29994 8.5 7.29994 10C7.29994 11.5 8.49994 12.7 9.99994 12.7C11.4999 12.7 12.6999 11.5 12.6999 10ZM14.0999 10C14.0999 12.3 12.2999 14.1 9.99994 14.1C7.69994 14.1 5.89994 12.3 5.89994 10C5.89994 7.7 7.69994 5.9 9.99994 5.9C12.2999 5.9 14.0999 7.7 14.0999 10ZM15.1999 5.7C15.1999 6.3 14.7999 6.7 14.1999 6.7C13.5999 6.7 13.1999 6.3 13.1999 5.7C13.1999 5.1 13.5999 4.7 14.1999 4.7C14.7999 4.7 15.1999 5.2 15.1999 5.7ZM9.99994 3.4C8.79994 3.4 6.29994 3.3 5.29994 3.7C4.59994 4 3.99994 4.6 3.79994 5.3C3.39994 6.3 3.49994 8.8 3.49994 10C3.49994 11.2 3.39994 13.7 3.79994 14.7C3.99994 15.4 4.59994 16 5.29994 16.2C6.29994 16.6 8.89994 16.5 9.99994 16.5C11.0999 16.5 13.6999 16.6 14.6999 16.2C15.3999 15.9 15.8999 15.4 16.1999 14.7C16.5999 13.6 16.4999 11.1 16.4999 10C16.4999 8.9 16.5999 6.3 16.1999 5.3C15.9999 4.6 15.3999 4 14.6999 3.8C13.6999 3.3 11.1999 3.4 9.99994 3.4ZM17.9999 10V13.3C17.9999 14.5 17.5999 15.7 16.6999 16.7C15.7999 17.6 14.5999 18 13.2999 18H6.69994C5.49994 18 4.29994 17.6 3.29994 16.7C2.49994 15.8 1.99994 14.6 1.99994 13.3V10V6.7C1.99994 5.4 2.49994 4.2 3.29994 3.3C4.29994 2.5 5.49994 2 6.69994 2H13.2999C14.4999 2 15.6999 2.4 16.6999 3.3C17.4999 4.2 17.9999 5.4 17.9999 6.7V10Z" fill="white"/>
</svg>
