<svg width="20" height="20" viewBox="0 0 20 20" fill="none" xmlns="http://www.w3.org/2000/svg">
<path d="M4.15251 5.9975C5.15951 5.9975 5.97584 5.18116 5.97584 4.17416C5.97584 3.16716 5.15951 2.35083 4.15251 2.35083C3.14551 2.35083 2.32918 3.16716 2.32918 4.17416C2.32918 5.18116 3.14551 5.9975 4.15251 5.9975Z" fill="white"/>
<path d="M7.69754 7.37915V17.495H10.8384V12.4925C10.8384 11.1725 11.0867 9.89415 12.7234 9.89415C14.3375 9.89415 14.3575 11.4033 14.3575 12.5758V17.4958H17.5V11.9483C17.5 9.22332 16.9134 7.12915 13.7284 7.12915C12.1992 7.12915 11.1742 7.96832 10.755 8.76248H10.7125V7.37915H7.69754ZM2.57921 7.37915H5.72504V17.495H2.57921V7.37915Z" fill="white"/>
</svg>
